<svg width="20" height="20" viewBox="0 0 20 20" fill="none" xmlns="http://www.w3.org/2000/svg">
<path d="M9.60901 0C4.31039 0 0 4.31039 0 9.60901C0 14.9076 4.31039 19.218 9.60901 19.218C14.9076 19.218 19.218 14.9076 19.218 9.60901C19.218 4.31039 14.9076 0 9.60901 0ZM14.1789 14.5792C14.0228 14.7353 13.8178 14.8139 13.6128 14.8139C13.4078 14.8139 13.2027 14.7353 13.0467 14.5792L9.0429 10.5755C8.89232 10.4258 8.8083 10.2223 8.8083 10.0094V4.8045C8.8083 4.36171 9.16694 4.0038 9.60901 4.0038C10.0511 4.0038 10.4097 4.36171 10.4097 4.8045V9.67792L14.1789 13.447C14.492 13.7602 14.492 14.2662 14.1789 14.5792Z" fill="white"/>
</svg>
