<svg width="98" height="98" viewBox="0 0 98 98" fill="none" xmlns="http://www.w3.org/2000/svg">
<path opacity="0.1" d="M98 49C98 76.062 76.062 98 49 98C21.938 98 0 76.062 0 49C0 21.938 21.938 0 49 0C76.062 0 98 21.938 98 49ZM4.96634 49C4.96634 73.3191 24.6809 93.0337 49 93.0337C73.3191 93.0337 93.0337 73.3191 93.0337 49C93.0337 24.6809 73.3191 4.96634 49 4.96634C24.6809 4.96634 4.96634 24.6809 4.96634 49Z" fill="#FF9882"/>
<path d="M49 0C42.5652 -7.67339e-08 36.1935 1.26742 30.2485 3.7299C24.3036 6.19238 18.9018 9.8017 14.3518 14.3518C9.80169 18.9018 6.19238 24.3036 3.7299 30.2485C1.26742 36.1935 -9.71623e-07 42.5652 0 49H4.77866C4.77866 43.1928 5.92247 37.4424 8.1448 32.0772C10.3671 26.712 13.6245 21.8371 17.7308 17.7308C21.8371 13.6245 26.712 10.3671 32.0772 8.14481C37.4424 5.92247 43.1928 4.77866 49 4.77866V0Z" fill="#FF9882"/>
<path d="M76.7424 44.2393C80.1052 46.1808 80.1052 51.0345 76.7424 52.976L39.9924 74.1936C36.6297 76.1351 32.4263 73.7082 32.4263 69.8253L32.4263 27.39C32.4263 23.5071 36.6297 21.0802 39.9924 23.0217L76.7424 44.2393Z" fill="#FF9882"/>
</svg>
