<svg width="67" height="67" viewBox="0 0 67 67" fill="none" xmlns="http://www.w3.org/2000/svg">
<circle opacity="0.2" cx="33" cy="34" r="33" fill="#8482FF"/>
<path d="M33 50.5V19.5M33 19.5L21 31.5M33 19.5L45 31.5" stroke="#FF9882" stroke-width="3" stroke-linecap="round" stroke-linejoin="round"/>
<path d="M2.18938 29.7072C1.26595 29.6096 0.592133 28.7808 0.73664 27.8635C1.91312 20.3958 5.6229 13.5389 11.2696 8.46146C17.334 3.00838 25.2028 -0.00590349 33.3584 8.67098e-06C41.514 0.00592083 49.3784 3.03161 55.4349 8.49348C61.0742 13.5791 64.7741 20.4414 65.9397 27.9108C66.0829 28.8283 65.4079 29.6561 64.4843 29.7524C63.5607 29.8487 62.7388 29.1768 62.5904 28.2601C61.5144 21.6175 58.205 15.5196 53.1829 10.9907C47.7436 6.08535 40.6805 3.36797 33.356 3.36267C26.0314 3.35736 18.9644 6.06449 13.5179 10.9619C8.48935 15.4836 5.17112 21.5766 4.08548 28.2177C3.93567 29.1341 3.1128 29.8049 2.18938 29.7072Z" fill="#8482FF"/>
</svg>
